<?xml version="1.0" standalone="no"?>
<!DOCTYPE svg PUBLIC "-//W3C//DTD SVG 20010904//EN"
 "http://www.w3.org/TR/2001/REC-SVG-20010904/DTD/svg10.dtd">
<svg version="1.0" xmlns="http://www.w3.org/2000/svg"
 width="512.000000pt" height="512.000000pt" viewBox="0 0 512.000000 512.000000"
 preserveAspectRatio="xMidYMid meet">
<metadata>
Created by potrace 1.14, written by Peter Selinger 2001-2017
</metadata>
<g transform="translate(0.000000,512.000000) scale(0.100000,-0.100000)"
fill="#000000" stroke="none">
<path d="M720 4789 c-85 -14 -192 -70 -256 -133 -65 -66 -119 -172 -134 -266
-14 -90 -14 -3570 0 -3660 33 -205 195 -367 400 -400 43 -6 676 -10 1855 -10
1973 0 1843 -4 1967 62 68 36 158 128 193 199 58 113 55 4 55 1979 0 1999 4
1868 -61 1991 -38 70 -126 157 -197 193 -117 59 -3 56 -1967 55 -1015 -1
-1824 -5 -1855 -10z m2901 -324 c61 -22 115 -62 154 -112 l33 -43 13 72 c6 40
15 76 18 80 4 4 76 -343 161 -772 85 -429 157 -780 160 -780 3 0 70 326 149
724 79 398 147 729 151 737 6 8 10 1 15 -22 3 -19 4 -466 3 -994 -4 -948 -4
-961 -25 -1041 -29 -106 -89 -244 -147 -337 -73 -118 -69 -121 -107 73 -18 93
-36 170 -39 170 -3 0 -30 -123 -59 -272 -60 -305 -52 -287 -167 -379 -87 -69
-236 -169 -244 -164 -4 2 -43 185 -86 405 -44 220 -81 400 -84 400 -3 0 -50
-222 -104 -493 -62 -306 -104 -496 -113 -503 -19 -16 -192 -78 -199 -72 -2 3
-53 247 -112 542 -59 295 -109 536 -112 536 -3 0 -59 -270 -125 -599 l-120
-600 -67 -11 c-37 -7 -71 -9 -76 -6 -5 3 -63 275 -128 606 -65 330 -121 600
-124 600 -3 0 -61 -282 -129 -626 l-124 -625 -66 3 -65 3 -126 628 c-68 345
-127 627 -130 627 -3 0 -59 -271 -126 -602 l-120 -603 -36 2 -35 2 -5 -77 c-7
-120 -64 -209 -170 -268 -48 -26 -62 -29 -148 -29 -80 0 -102 4 -138 23 -63
33 -114 84 -148 144 -26 48 -29 62 -29 148 0 105 14 144 77 216 34 39 122 94
151 94 9 0 17 5 17 10 0 6 -7 10 -15 10 -9 0 -33 9 -55 20 l-39 20 -7 -38
c-10 -56 -13 -57 -56 -15 -82 78 -78 28 -77 828 l0 710 21 -53 c28 -73 109
-153 183 -181 210 -79 435 76 435 299 0 127 -88 257 -200 297 -27 10 -50 20
-50 23 0 3 23 13 50 23 70 25 151 107 179 182 44 117 18 243 -68 335 l-48 51
12 59 c9 41 23 72 49 104 72 87 96 209 60 307 -13 38 -14 55 -3 119 6 41 15
78 18 82 4 4 76 -343 161 -772 85 -429 157 -780 160 -780 3 0 75 351 160 780
85 429 157 776 160 772 3 -4 75 -357 160 -784 85 -428 157 -778 160 -778 3 0
75 350 160 778 85 427 157 780 160 784 3 4 75 -343 160 -772 85 -429 157 -780
160 -780 3 0 75 351 160 780 85 429 157 776 161 772 3 -4 12 -40 18 -80 l13
-73 29 39 c82 112 234 161 360 117z m-2964 -196 l-15 -44 -1 67 c-1 87 10 119
22 62 7 -31 5 -53 -6 -85z m59 -315 c26 -33 40 -63 49 -105 l13 -60 -48 -49
c-29 -30 -57 -71 -69 -102 l-20 -53 0 255 0 255 19 -48 c10 -26 35 -69 56 -93z
m20 -659 c35 -36 70 -60 104 -72 27 -10 50 -20 50 -23 0 -3 -23 -13 -50 -23
-68 -24 -151 -107 -178 -179 l-21 -53 0 255 0 255 21 -53 c13 -35 39 -72 74
-107z"/>
<path d="M3414 3405 c55 -278 103 -505 106 -505 3 0 51 227 106 505 56 278 98
505 94 505 -4 0 -13 -7 -20 -15 -21 -25 -118 -55 -180 -55 -62 0 -159 30 -180
55 -7 8 -16 15 -20 15 -4 0 38 -227 94 -505z"/>
<path d="M1100 1310 c-19 -11 -43 -19 -52 -20 -10 0 -18 -4 -18 -10 0 -5 8
-10 18 -10 9 0 37 -12 61 -25 24 -14 46 -24 48 -22 3 4 -16 108 -20 107 -1 -1
-18 -9 -37 -20z"/>
</g>
</svg>
